PathFileType	4	(X/Y/Z)	D:\Share\Shared_Data\Ergonomics\Sit To Stand Pertubation\S2\Unperturbed.trc
DataRate	CameraRate	NumFrames	NumMarkers	Units	OrigDataRate	OrigDataStartFrame	OrigNumFrames	
100	100	16	18	m	100	4551	241
Frame#	Time	R_Toe			R_ASIS			R_Pelvis			V_Sacral			L_Pelvis			L_ASIS			Clavical			R_Acromium			L_Acromium			Sternum			Torso			R_Thigh_Med			R_Thigh_Lat			R_Thigh			R_Shank_Med			R_Shank_Lat			R_Shank			R_Heel			
		X1	Y1	Z1	X2	Y2	Z2	X3	Y3	Z3	X4	Y4	Z4	X5	Y5	Z5	X6	Y6	Z6	X7	Y7	Z7	X8	Y8	Z8	X9	Y9	Z9	X10	Y10	Z10	X11	Y11	Z11	X12	Y12	Z12	X13	Y13	Z13	X14	Y14	Z14	X15	Y15	Z15	X16	Y16	Z16	X17	Y17	Z17	X18	Y18	Z18	

4551	45.5	0.44002335	0.073027328	0.15024809	0.14408051	0.72970679	0.13496298	0.078811157	0.77172192	0.17693828	-0.070952011	0.77155432	0.018912659	0.049314865	0.78216565	-0.15840694	0.13763113	0.74207776	-0.13329735	0.41709363	0.99673834	-0.0042954679	0.36631741	1.0737731	0.20028	0.35666068	1.0898447	-0.18721475	0.35485675	0.8472829	-0.0032913203	0.39850534	0.96542926	-0.11443437	0.45354245	0.47591171	0.11121572	0.43014062	0.49258685	0.21382285	0.31921832	0.65476501	0.16868822	0.30676834	0.10880318	0.11449496	0.28646536	0.097700256	0.20783493	0.38877213	0.34560681	0.23168558	0.20285454	0.05743647	0.15297888
4552	45.51	0.43999371	0.072951996	0.15020895	0.14725595	0.73549329	0.13497015	0.08217379	0.77800806	0.17697937	-0.067500679	0.77923322	0.018747988	0.052649677	0.78876355	-0.15855423	0.14056104	0.748875	-0.13422409	0.41982397	1.004782	-0.0039267702	0.36862869	1.0817321	0.20051862	0.35911609	1.0974272	-0.186968	0.35789087	0.85515948	-0.0028498969	0.401297	0.9732356	-0.11413558	0.45362616	0.47586365	0.11097709	0.43040976	0.49267917	0.2134352	0.32203613	0.65656232	0.1686476	0.30674918	0.10876405	0.11441167	0.28643152	0.09771109	0.20777048	0.38871344	0.3457684	0.23148184	0.20281856	0.057542332	0.15304781
4553	45.52	0.43996414	0.072873421	0.15015797	0.1504124	0.74146735	0.1350027	0.085526398	0.7843443	0.1770166	-0.06406472	0.78691138	0.018614183	0.05594846	0.79539215	-0.15869612	0.14350212	0.75582727	-0.13506798	0.42241696	1.0129564	-0.0035716686	0.37083517	1.0898018	0.20076036	0.36148068	1.1051777	-0.18672398	0.36092456	0.86314771	-0.002433603	0.40397656	0.9812066	-0.1138429	0.45360248	0.47585028	0.11066341	0.43059296	0.49281146	0.21297072	0.32478888	0.6583504	0.16855144	0.30672742	0.10871889	0.11431573	0.28639767	0.09772377	0.20769785	0.38860007	0.34596875	0.231226	0.20277559	0.057641075	0.1531129
4554	45.53	0.43993454	0.07279879	0.15010371	0.1535509	0.74760175	0.13505968	0.088874077	0.79071289	0.17704761	-0.060639286	0.79456628	0.018512751	0.059212147	0.8020351	-0.15882397	0.14650858	0.76275592	-0.13567575	0.42489041	1.021252	-0.0032326787	0.37293817	1.0979636	0.20100728	0.36374915	1.1130815	-0.18648201	0.36394281	0.87124103	-0.0020463181	0.40656213	0.98932892	-0.11355311	0.45347876	0.47586807	0.11028056	0.43069733	0.49298224	0.21243655	0.3274798	0.66012769	0.1684014	0.30670251	0.10867051	0.11421069	0.28636185	0.097739693	0.20761908	0.38843555	0.34620728	0.23092426	0.20272881	0.05772728	0.15316817
4555	45.54	0.43990369	0.072732697	0.15005267	0.15667935	0.75384143	0.13513239	0.092219215	0.79709521	0.17707338	-0.057219273	0.80217834	0.018441336	0.062439869	0.80867853	-0.15892935	0.14961011	0.76954327	-0.13593289	0.4272655	1.0296598	-0.0029112933	0.37493805	1.106199	0.20126006	0.36591547	1.1211211	-0.18624158	0.36693457	0.87943146	-0.0016892174	0.40906955	0.99758673	-0.11326456	0.45326169	0.47591321	0.10983823	0.43072971	0.49318887	0.21184279	0.33011255	0.6618905	0.16820055	0.30667416	0.10862115	0.11409963	0.2863215	0.097761452	0.20753439	0.38822272	0.34648129	0.23058417	0.20268376	0.057795986	0.15320918
4556	45.55	0.43987061	0.072676468	0.15000874	0.1598103	0.76011993	0.13520567	0.095562729	0.80347314	0.17709767	-0.053800285	0.80973163	0.018394503	0.065631668	0.81530939	-0.1590052	0.15280844	0.77615521	-0.13579866	0.42956113	1.0381686	-0.0026082637	0.37683408	1.1144913	0.20151802	0.3679726	1.1292762	-0.18600328	0.36989618	0.8877088	-0.0013620248	0.41151193	1.0059623	-0.11297903	0.45295853	0.47598199	0.10934893	0.43069699	0.4934277	0.21120148	0.33269196	0.66363342	0.16795418	0.30664255	0.10857231	0.11398486	0.28627448	0.097791794	0.2074424	0.3879642	0.34678601	0.23021349	0.20264487	0.057845387	0.1532347
4557	45.56	0.43983612	0.072626259	0.14997345	0.16295731	0.76638531	0.13526605	0.098904823	0.80982965	0.17712547	-0.05037986	0.8172135	0.018364416	0.068791069	0.82191504	-0.15904585	0.15609131	0.78261377	-0.13528993	0.43178989	1.0467656	-0.0023239276	0.37862555	1.122825	0.20177965	0.36991406	1.1375272	-0.18576874	0.37282993	0.89605945	-0.0010645931	0.41389996	1.0144362	-0.1127014	0.45257828	0.47607123	0.10882699	0.43060538	0.49369354	0.21052585	0.33522546	0.66535028	0.16767058	0.30660919	0.10852449	0.11386773	0.2862204	0.097832214	0.20734138	0.38766199	0.34711536	0.22981987	0.20261409	0.057877357	0.15324612
4558	45.57	0.43980344	0.072570465	0.14994557	0.16613152	0.77261224	0.13530768	0.10224579	0.81614972	0.17716101	-0.046957226	0.82461115	0.018344667	0.071926735	0.82848291	-0.15904881	0.15944087	0.78896429	-0.13446956	0.43395615	1.0554355	-0.0020578196	0.3803132	1.1311846	0.20204306	0.37173697	1.1458535	-0.18553876	0.37573907	0.90446735	-0.00079785615	0.41624124	1.0229897	-0.11243805	0.45213223	0.47617914	0.10828813	0.43046008	0.49398065	0.20982951	0.33772244	0.66703461	0.16736096	0.30657724	0.10847732	0.1137485	0.28616168	0.097882248	0.20723007	0.38731885	0.34746307	0.22941164	0.20259186	0.057896183	0.15324602
4559	45.58	0.4397789	0.072488792	0.14992065	0.16933972	0.77879517	0.1353309	0.10558658	0.82242023	0.1772066	-0.043531593	0.83190802	0.018333582	0.075051926	0.83500085	-0.15902019	0.16283484	0.79525409	-0.13344208	0.43605728	1.0641626	-0.0018079737	0.38190018	1.1395558	0.20230595	0.37344186	1.1542339	-0.18531262	0.37862372	0.91291547	-0.00056377387	0.41853891	1.0316041	-0.11219488	0.45163272	0.47630542	0.10774953	0.43026572	0.49428351	0.20912585	0.3401925	0.66868011	0.16703827	0.30655182	0.10842966	0.11362624	0.2861037	0.097939621	0.20710817	0.38693863	0.34782333	0.22899854	0.20257855	0.0579072	0.15323686
4560	45.59	0.43977148	0.072354164	0.14989185	0.17258386	0.78493744	0.1353391	0.1089286	0.82863013	0.17726312	-0.040101257	0.83908557	0.018331509	0.078180893	0.84145642	-0.15897574	0.1662475	0.80151691	-0.13233076	0.43808588	1.0729304	-0.0015708034	0.38339224	1.1479247	0.20256645	0.37503131	1.1626471	-0.18508951	0.38147919	0.921388	-0.00036472556	0.42079156	1.0402621	-0.11197604	0.45109131	0.47645047	0.10722832	0.43002661	0.49459756	0.20842836	0.34264224	0.67028113	0.16671677	0.30653864	0.10838004	0.11349931	0.28605338	0.098000778	0.20697644	0.38652643	0.34819144	0.22859174	0.20257512	0.057915684	0.15322072
4561	45.6	0.43979178	0.07213694	0.14985136	0.1758625	0.79104413	0.13533777	0.11227293	0.83476996	0.17733127	-0.036664246	0.84612793	0.018336275	0.081324203	0.84783765	-0.15893219	0.16965323	0.80776666	-0.13126065	0.44003299	1.0817238	-0.0013416766	0.38479599	1.1562788	0.2028241	0.37650851	1.1710729	-0.18486934	0.38429813	0.92987152	-0.00020254859	0.42299384	1.048948	-0.11178357	0.45051764	0.47661435	0.10673909	0.42974661	0.49491901	0.20774973	0.34507416	0.67183356	0.16641228	0.30654257	0.10832693	0.11336604	0.28601694	0.098061905	0.20683655	0.38608832	0.34856366	0.22820273	0.20258249	0.057926113	0.15319919
4562	45.61	0.43985016	0.071810173	0.14979166	0.17917252	0.79711859	0.13533408	0.11562016	0.84083209	0.17741277	-0.033218967	0.8530238	0.018343561	0.084487694	0.85413373	-0.15889926	0.17303224	0.81400281	-0.1303515	0.44189032	1.0905292	-0.0011163478	0.38611774	1.1646093	0.20307964	0.37787592	1.1794943	-0.1846521	0.38707425	0.93835553	-7.7729411e-05	0.42513779	1.0576488	-0.11161772	0.44991888	0.47679605	0.10629317	0.42942853	0.49524457	0.20710083	0.34748666	0.67333508	0.1661413	0.30656604	0.10826917	0.1132258	0.28599777	0.098120224	0.20669014	0.3856304	0.34893716	0.22784206	0.20260127	0.057941673	0.15317377
4563	45.62	0.43995428	0.07135553	0.14970578	0.18250974	0.80316077	0.13533623	0.11897107	0.84681183	0.17751035	-0.029764093	0.85976495	0.018350033	0.087674347	0.86033453	-0.15887935	0.17637827	0.82021436	-0.12968483	0.4436521	1.0993361	-0.00089314872	0.38736185	1.1729075	0.20333339	0.37913513	1.1879011	-0.18443781	0.38980566	0.94683124	1.09169e-05	0.42721503	1.066353	-0.11147756	0.44930038	0.47699408	0.10589829	0.42907495	0.49557135	0.20648932	0.34987717	0.67478375	0.16591808	0.3066087	0.10820635	0.11307978	0.28599551	0.098174866	0.2065386	0.3851582	0.34931006	0.22751811	0.20263094	0.057963947	0.15314589
4564	45.63	0.44010577	0.070770226	0.14958907	0.18586932	0.80916779	0.13535242	0.12232687	0.85270587	0.17762679	-0.026298262	0.86634485	0.018355516	0.090885887	0.86643158	-0.15887103	0.17969878	0.82638397	-0.12927599	0.44531528	1.1081354	-0.00067464268	0.38853049	1.1811659	0.20358492	0.38028687	1.1962869	-0.1842271	0.39249576	0.95529071	6.6402435e-05	0.42921893	1.0750516	-0.11136169	0.44866501	0.47720618	0.10555772	0.42868756	0.49589645	0.20591882	0.35224408	0.67617828	0.16575163	0.30666821	0.1081392	0.11293116	0.2860069	0.098226448	0.20638344	0.38467599	0.34968167	0.22723532	0.2026698	0.05799305	0.15311639
4565	45.64	0.44029654	0.07007618	0.14944366	0.1892469	0.81513678	0.13539029	0.12568906	0.85851367	0.17776405	-0.022819828	0.87276031	0.018364405	0.094123085	0.87241876	-0.15887189	0.18300772	0.83249384	-0.12908928	0.44687982	1.1169204	-0.00046697405	0.38962399	1.1893788	0.20383347	0.38133035	1.2046456	-0.18402058	0.39515195	0.96372717	9.3634278e-05	0.43114667	1.0837361	-0.1112684	0.44801257	0.47742984	0.10527016	0.42826685	0.49621713	0.20538857	0.35458777	0.67751752	0.16564468	0.30674066	0.10806928	0.1127845	0.28602676	0.098276649	0.20622649	0.38418616	0.35005154	0.22699399	0.20271498	0.058027855	0.15308513
4566	45.65	0.44050818	0.069321739	0.14928177	0.19264107	0.82106677	0.13545645	0.12905977	0.8642359	0.1779231	-0.019326527	0.87901233	0.018386223	0.097386398	0.87829242	-0.15888069	0.18631879	0.83853088	-0.12906773	0.4483483	1.1256858	-0.00027673498	0.39064282	1.197542	0.20407849	0.38226175	1.2129702	-0.18381744	0.39778207	0.97213409	9.9220723e-05	0.43300003	1.0923988	-0.11119514	0.44734012	0.47766284	0.10503083	0.42781253	0.4965318	0.20489491	0.35691031	0.67880188	0.16559447	0.30682126	0.10799873	0.11264443	0.28604938	0.098327347	0.20606999	0.38368896	0.35041864	0.22679054	0.20276294	0.058066017	0.15305107
